<svg width="33" height="33" viewBox="0 0 33 33" fill="none" xmlns="http://www.w3.org/2000/svg">
<path d="M16.4419 3.8839C20.7144 3.8839 21.2199 3.90041 22.9074 3.97726C24.4673 4.04839 25.3146 4.30879 25.8785 4.52791C26.5744 4.78411 27.2038 5.19324 27.7204 5.72512C28.2523 6.24174 28.6614 6.87116 28.9176 7.56697C29.1367 8.13096 29.3971 8.97821 29.4683 10.5381C29.5451 12.2256 29.5616 12.7312 29.5616 17.0036C29.5616 21.2761 29.5451 21.7817 29.4683 23.4692C29.3971 25.029 29.1367 25.8763 28.9176 26.4403C28.6511 27.1301 28.2433 27.7567 27.7204 28.2796C27.1975 28.8025 26.5709 29.2103 25.8811 29.4768C25.3171 29.6959 24.4698 29.9563 22.91 30.0274C21.2231 30.1043 20.7169 30.1208 16.4444 30.1208C12.172 30.1208 11.6658 30.1043 9.97889 30.0274C8.41903 29.9563 7.57178 29.6959 7.00779 29.4768C6.31198 29.2206 5.68255 28.8115 5.16593 28.2796C4.63406 27.763 4.22493 27.1335 3.96873 26.4377C3.74961 25.8737 3.48921 25.0265 3.41808 23.4666C3.34123 21.7791 3.32471 21.2736 3.32471 17.0011C3.32471 12.7286 3.34123 12.2231 3.41808 10.5355C3.48921 8.97567 3.74961 8.12842 3.96873 7.56443C4.22493 6.86862 4.63406 6.2392 5.16593 5.72258C5.68255 5.1907 6.31198 4.78157 7.00779 4.52537C7.57178 4.30625 8.41903 4.04585 9.97889 3.97472C11.6664 3.89787 12.172 3.88136 16.4444 3.88136L16.4419 3.8839ZM16.4444 0.998535C12.0989 0.998535 11.554 1.01695 9.84742 1.09507C8.14085 1.17319 6.97921 1.44566 5.96111 1.84134C4.89357 2.24303 3.92647 2.87266 3.12719 3.68637C2.31463 4.48597 1.68609 5.45305 1.28534 6.52029C0.88648 7.53839 0.615918 8.7013 0.538433 10.4041C0.460948 12.1068 0.441895 12.6556 0.441895 17.0011C0.441895 21.3466 0.460313 21.8915 0.538433 23.5981C0.616553 25.3047 0.88648 26.4638 1.28216 27.4819C1.68384 28.5494 2.31348 29.5165 3.12719 30.3158C3.92662 31.1295 4.89366 31.7593 5.96111 32.1615C6.9773 32.5565 8.14212 32.8271 9.84488 32.9052C11.5476 32.9833 12.0964 33.0011 16.4419 33.0011C20.7874 33.0011 21.3323 32.9827 23.0389 32.9052C24.7455 32.8277 25.9046 32.5565 26.9227 32.1615C27.9855 31.7503 28.9508 31.1216 29.7566 30.3158C30.5624 29.51 31.1911 28.5447 31.6023 27.4819C31.9973 26.4657 32.2679 25.3009 32.346 23.5981C32.4241 21.8953 32.4419 21.3466 32.4419 17.0011C32.4419 12.6556 32.4235 12.1106 32.346 10.4041C32.2685 8.69749 31.9973 7.53839 31.6023 6.52029C31.2001 5.45285 30.5703 4.4858 29.7566 3.68637C28.957 2.87381 27.9899 2.24527 26.9227 1.84452C25.9046 1.44566 24.7417 1.1751 23.0389 1.09761C21.3361 1.02013 20.7874 1.00108 16.4419 1.00108L16.4444 0.998535Z" fill="#F5F5F5"/>
<path d="M16.4419 3.8839C20.7144 3.8839 21.2199 3.90041 22.9074 3.97726C24.4673 4.04839 25.3146 4.30879 25.8785 4.52791C26.5744 4.78411 27.2038 5.19324 27.7204 5.72512C28.2523 6.24174 28.6614 6.87116 28.9176 7.56697C29.1367 8.13096 29.3971 8.97821 29.4683 10.5381C29.5451 12.2256 29.5616 12.7312 29.5616 17.0036C29.5616 21.2761 29.5451 21.7817 29.4683 23.4692C29.3971 25.029 29.1367 25.8763 28.9176 26.4403C28.6511 27.1301 28.2433 27.7567 27.7204 28.2796C27.1975 28.8025 26.5709 29.2103 25.8811 29.4768C25.3171 29.6959 24.4698 29.9563 22.91 30.0274C21.2231 30.1043 20.7169 30.1208 16.4444 30.1208C12.172 30.1208 11.6658 30.1043 9.97889 30.0274C8.41903 29.9563 7.57178 29.6959 7.00779 29.4768C6.31198 29.2206 5.68255 28.8115 5.16593 28.2796C4.63406 27.763 4.22493 27.1335 3.96873 26.4377C3.74961 25.8737 3.48921 25.0265 3.41808 23.4666C3.34123 21.7791 3.32471 21.2736 3.32471 17.0011C3.32471 12.7286 3.34123 12.2231 3.41808 10.5355C3.48921 8.97567 3.74961 8.12842 3.96873 7.56443C4.22493 6.86862 4.63406 6.2392 5.16593 5.72258C5.68255 5.1907 6.31198 4.78157 7.00779 4.52537C7.57178 4.30625 8.41903 4.04585 9.97889 3.97472C11.6664 3.89787 12.172 3.88136 16.4444 3.88136L16.4419 3.8839ZM16.4444 0.998535C12.0989 0.998535 11.554 1.01695 9.84742 1.09507C8.14085 1.17319 6.97921 1.44566 5.96111 1.84134C4.89357 2.24303 3.92647 2.87266 3.12719 3.68637C2.31463 4.48597 1.68609 5.45305 1.28534 6.52029C0.88648 7.53839 0.615918 8.7013 0.538433 10.4041C0.460948 12.1068 0.441895 12.6556 0.441895 17.0011C0.441895 21.3466 0.460313 21.8915 0.538433 23.5981C0.616553 25.3047 0.88648 26.4638 1.28216 27.4819C1.68384 28.5494 2.31348 29.5165 3.12719 30.3158C3.92662 31.1295 4.89366 31.7593 5.96111 32.1615C6.9773 32.5565 8.14212 32.8271 9.84488 32.9052C11.5476 32.9833 12.0964 33.0011 16.4419 33.0011C20.7874 33.0011 21.3323 32.9827 23.0389 32.9052C24.7455 32.8277 25.9046 32.5565 26.9227 32.1615C27.9855 31.7503 28.9508 31.1216 29.7566 30.3158C30.5624 29.51 31.1911 28.5447 31.6023 27.4819C31.9973 26.4657 32.2679 25.3009 32.346 23.5981C32.4241 21.8953 32.4419 21.3466 32.4419 17.0011C32.4419 12.6556 32.4235 12.1106 32.346 10.4041C32.2685 8.69749 31.9973 7.53839 31.6023 6.52029C31.2001 5.45285 30.5703 4.4858 29.7566 3.68637C28.957 2.87381 27.9899 2.24527 26.9227 1.84452C25.9046 1.44566 24.7417 1.1751 23.0389 1.09761C21.3361 1.02013 20.7874 1.00108 16.4419 1.00108L16.4444 0.998535Z" fill="url(#paint0_linear_2_1801)"/>
<path d="M16.4419 8.78516C14.8168 8.78516 13.2282 9.26707 11.877 10.1699C10.5258 11.0728 9.47261 12.3561 8.85074 13.8575C8.22886 15.359 8.06618 17.0111 8.38327 18.6049C8.70036 20.1988 9.48298 21.6629 10.6322 22.812C11.7813 23.961 13.2454 24.7435 14.8393 25.0605C16.4332 25.3775 18.0854 25.2147 19.5867 24.5927C21.0881 23.9707 22.3713 22.9174 23.2741 21.5662C24.1769 20.2149 24.6586 18.6262 24.6585 17.0011C24.6586 15.9221 24.4461 14.8536 24.0332 13.8567C23.6203 12.8599 23.0151 11.9541 22.2521 11.1911C21.4891 10.4282 20.5833 9.82303 19.5863 9.41021C18.5894 8.99738 17.5209 8.78499 16.4419 8.78516ZM16.4419 22.3342C15.3868 22.3342 14.3553 22.0213 13.4779 21.4351C12.6006 20.8489 11.9168 20.0157 11.513 19.0408C11.1092 18.066 11.0036 16.9933 11.2094 15.9584C11.4153 14.9235 11.9234 13.9729 12.6695 13.2268C13.4156 12.4806 14.3662 11.9725 15.4011 11.7667C16.436 11.5608 17.5087 11.6665 18.4836 12.0703C19.4584 12.4741 20.2916 13.1579 20.8779 14.0352C21.4641 14.9126 21.777 15.944 21.777 16.9992C21.777 18.4141 21.2149 19.7711 20.2144 20.7716C19.2139 21.7721 17.8569 22.3342 16.4419 22.3342Z" fill="#F5F5F5"/>
<path d="M16.4419 8.78516C14.8168 8.78516 13.2282 9.26707 11.877 10.1699C10.5258 11.0728 9.47261 12.3561 8.85074 13.8575C8.22886 15.359 8.06618 17.0111 8.38327 18.6049C8.70036 20.1988 9.48298 21.6629 10.6322 22.812C11.7813 23.961 13.2454 24.7435 14.8393 25.0605C16.4332 25.3775 18.0854 25.2147 19.5867 24.5927C21.0881 23.9707 22.3713 22.9174 23.2741 21.5662C24.1769 20.2149 24.6586 18.6262 24.6585 17.0011C24.6586 15.9221 24.4461 14.8536 24.0332 13.8567C23.6203 12.8599 23.0151 11.9541 22.2521 11.1911C21.4891 10.4282 20.5833 9.82303 19.5863 9.41021C18.5894 8.99738 17.5209 8.78499 16.4419 8.78516ZM16.4419 22.3342C15.3868 22.3342 14.3553 22.0213 13.4779 21.4351C12.6006 20.8489 11.9168 20.0157 11.513 19.0408C11.1092 18.066 11.0036 16.9933 11.2094 15.9584C11.4153 14.9235 11.9234 13.9729 12.6695 13.2268C13.4156 12.4806 14.3662 11.9725 15.4011 11.7667C16.436 11.5608 17.5087 11.6665 18.4836 12.0703C19.4584 12.4741 20.2916 13.1579 20.8779 14.0352C21.4641 14.9126 21.777 15.944 21.777 16.9992C21.777 18.4141 21.2149 19.7711 20.2144 20.7716C19.2139 21.7721 17.8569 22.3342 16.4419 22.3342Z" fill="url(#paint1_linear_2_1801)"/>
<path d="M24.983 10.38C26.0434 10.38 26.903 9.52039 26.903 8.46001C26.903 7.39964 26.0434 6.54004 24.983 6.54004C23.9227 6.54004 23.063 7.39964 23.063 8.46001C23.063 9.52039 23.9227 10.38 24.983 10.38Z" fill="#F5F5F5"/>
<path d="M24.983 10.38C26.0434 10.38 26.903 9.52039 26.903 8.46001C26.903 7.39964 26.0434 6.54004 24.983 6.54004C23.9227 6.54004 23.063 7.39964 23.063 8.46001C23.063 9.52039 23.9227 10.38 24.983 10.38Z" fill="url(#paint2_linear_2_1801)"/>
<defs>
<linearGradient id="paint0_linear_2_1801" x1="24.2161" y1="-2.69802" x2="-1.68131" y2="27.9522" gradientUnits="userSpaceOnUse">
<stop offset="0.1177" stop-color="#7ACA37"/>
<stop offset="0.2561" stop-color="#70C53A"/>
<stop offset="0.4886" stop-color="#56B641"/>
<stop offset="0.7848" stop-color="#2C9F4E"/>
<stop offset="1" stop-color="#098C58"/>
</linearGradient>
<linearGradient id="paint1_linear_2_1801" x1="20.4343" y1="6.887" x2="7.13626" y2="22.6268" gradientUnits="userSpaceOnUse">
<stop offset="0.1177" stop-color="#7ACA37"/>
<stop offset="0.2561" stop-color="#70C53A"/>
<stop offset="0.4886" stop-color="#56B641"/>
<stop offset="0.7848" stop-color="#2C9F4E"/>
<stop offset="1" stop-color="#098C58"/>
</linearGradient>
<linearGradient id="paint2_linear_2_1801" x1="25.9159" y1="6.09649" x2="22.8086" y2="9.77443" gradientUnits="userSpaceOnUse">
<stop offset="0.1177" stop-color="#7ACA37"/>
<stop offset="0.2561" stop-color="#70C53A"/>
<stop offset="0.4886" stop-color="#56B641"/>
<stop offset="0.7848" stop-color="#2C9F4E"/>
<stop offset="1" stop-color="#098C58"/>
</linearGradient>
</defs>
</svg>
